<svg xmlns="http://www.w3.org/2000/svg" style="display: none;">
  <symbol id="bootstrap" viewBox="0 0 118 94">
    <title>Bootstrap</title>
    <path fill-rule="evenodd" clip-rule="evenodd" d="M24.509 0c-6.733 0-11.715 5.893-11.492 12.284.214 6.14-.064 14.092-2.066 20.577C8.943 39.365 5.547 43.485 0 44.014v5.972c5.547.529 8.943 4.649 10.951 11.153 2.002 6.485 2.28 14.437 2.066 20.577C12.794 88.106 17.776 94 24.51 94H93.5c6.733 0 11.714-5.893 11.491-12.284-.214-6.14.064-14.092 2.066-20.577 2.009-6.504 5.396-10.624 10.943-11.153v-5.972c-5.547-.529-8.934-4.649-10.943-11.153-2.002-6.484-2.28-14.437-2.066-20.577C105.214 5.894 100.233 0 93.5 0H24.508zM80 57.863C80 66.663 73.436 72 62.543 72H44a2 2 0 01-2-2V24a2 2 0 012-2h18.437c9.083 0 15.044 4.92 15.044 12.474 0 5.302-4.01 10.049-9.119 10.88v.277C75.317 46.394 80 51.21 80 57.863zM60.521 28.34H49.948v14.934h8.905c6.884 0 10.68-2.772 10.68-7.727 0-4.643-3.264-7.207-9.012-7.207zM49.948 49.2v16.458H60.91c7.167 0 10.964-2.876 10.964-8.281 0-5.406-3.903-8.178-11.425-8.178H49.948z"></path>
  </symbol>
  <symbol id="home" viewBox="0 0 16 16">
    <path d="M8.354 1.146a.5.5 0 0 0-.708 0l-6 6A.5.5 0 0 0 1.5 7.5v7a.5.5 0 0 0 .5.5h4.5a.5.5 0 0 0 .5-.5v-4h2v4a.5.5 0 0 0 .5.5H14a.5.5 0 0 0 .5-.5v-7a.5.5 0 0 0-.146-.354L13 5.793V2.5a.5.5 0 0 0-.5-.5h-1a.5.5 0 0 0-.5.5v1.293L8.354 1.146zM2.5 14V7.707l5.5-5.5 5.5 5.5V14H10v-4a.5.5 0 0 0-.5-.5h-3a.5.5 0 0 0-.5.5v4H2.5z"/>
  </symbol>
  <symbol id="speedometer2" viewBox="0 0 16 16">
    <path d="M8 4a.5.5 0 0 1 .5.5V6a.5.5 0 0 1-1 0V4.5A.5.5 0 0 1 8 4zM3.732 5.732a.5.5 0 0 1 .707 0l.915.914a.5.5 0 1 1-.708.708l-.914-.915a.5.5 0 0 1 0-.707zM2 10a.5.5 0 0 1 .5-.5h1.586a.5.5 0 0 1 0 1H2.5A.5.5 0 0 1 2 10zm9.5 0a.5.5 0 0 1 .5-.5h1.5a.5.5 0 0 1 0 1H12a.5.5 0 0 1-.5-.5zm.754-4.246a.389.389 0 0 0-.527-.02L7.547 9.31a.91.91 0 1 0 1.302 1.258l3.434-4.297a.389.389 0 0 0-.029-.518z"/>
    <path fill-rule="evenodd" d="M0 10a8 8 0 1 1 15.547 2.661c-.442 1.253-1.845 1.602-2.932 1.25C11.309 13.488 9.475 13 8 13c-1.474 0-3.31.488-4.615.911-1.087.352-2.49.003-2.932-1.25A7.988 7.988 0 0 1 0 10zm8-7a7 7 0 0 0-6.603 9.329c.203.575.923.876 1.68.63C4.397 12.533 6.358 12 8 12s3.604.532 4.923.96c.757.245 1.477-.056 1.68-.631A7 7 0 0 0 8 3z"/>
  </symbol>
  <symbol id="table" viewBox="0 0 16 16">
    <path d="M0 2a2 2 0 0 1 2-2h12a2 2 0 0 1 2 2v12a2 2 0 0 1-2 2H2a2 2 0 0 1-2-2V2zm15 2h-4v3h4V4zm0 4h-4v3h4V8zm0 4h-4v3h3a1 1 0 0 0 1-1v-2zm-5 3v-3H6v3h4zm-5 0v-3H1v2a1 1 0 0 0 1 1h3zm-4-4h4V8H1v3zm0-4h4V4H1v3zm5-3v3h4V4H6zm4 4H6v3h4V8z"/>
  </symbol>
  <symbol id="people-circle" viewBox="0 0 16 16">
    <path d="M11 6a3 3 0 1 1-6 0 3 3 0 0 1 6 0z"/>
    <path fill-rule="evenodd" d="M0 8a8 8 0 1 1 16 0A8 8 0 0 1 0 8zm8-7a7 7 0 0 0-5.468 11.37C3.242 11.226 4.805 10 8 10s4.757 1.225 5.468 2.37A7 7 0 0 0 8 1z"/>
  </symbol>
  <symbol id="grid" viewBox="0 0 16 16">
    <path d="M1 2.5A1.5 1.5 0 0 1 2.5 1h3A1.5 1.5 0 0 1 7 2.5v3A1.5 1.5 0 0 1 5.5 7h-3A1.5 1.5 0 0 1 1 5.5v-3zM2.5 2a.5.5 0 0 0-.5.5v3a.5.5 0 0 0 .5.5h3a.5.5 0 0 0 .5-.5v-3a.5.5 0 0 0-.5-.5h-3zm6.5.5A1.5 1.5 0 0 1 10.5 1h3A1.5 1.5 0 0 1 15 2.5v3A1.5 1.5 0 0 1 13.5 7h-3A1.5 1.5 0 0 1 9 5.5v-3zm1.5-.5a.5.5 0 0 0-.5.5v3a.5.5 0 0 0 .5.5h3a.5.5 0 0 0 .5-.5v-3a.5.5 0 0 0-.5-.5h-3zM1 10.5A1.5 1.5 0 0 1 2.5 9h3A1.5 1.5 0 0 1 7 10.5v3A1.5 1.5 0 0 1 5.5 15h-3A1.5 1.5 0 0 1 1 13.5v-3zm1.5-.5a.5.5 0 0 0-.5.5v3a.5.5 0 0 0 .5.5h3a.5.5 0 0 0 .5-.5v-3a.5.5 0 0 0-.5-.5h-3zm6.5.5A1.5 1.5 0 0 1 10.5 9h3a1.5 1.5 0 0 1 1.5 1.5v3a1.5 1.5 0 0 1-1.5 1.5h-3A1.5 1.5 0 0 1 9 13.5v-3zm1.5-.5a.5.5 0 0 0-.5.5v3a.5.5 0 0 0 .5.5h3a.5.5 0 0 0 .5-.5v-3a.5.5 0 0 0-.5-.5h-3z"/>
  </symbol>
  <symbol id="collection" viewBox="0 0 16 16">
    <path d="M2.5 3.5a.5.5 0 0 1 0-1h11a.5.5 0 0 1 0 1h-11zm2-2a.5.5 0 0 1 0-1h7a.5.5 0 0 1 0 1h-7zM0 13a1.5 1.5 0 0 0 1.5 1.5h13A1.5 1.5 0 0 0 16 13V6a1.5 1.5 0 0 0-1.5-1.5h-13A1.5 1.5 0 0 0 0 6v7zm1.5.5A.5.5 0 0 1 1 13V6a.5.5 0 0 1 .5-.5h13a.5.5 0 0 1 .5.5v7a.5.5 0 0 1-.5.5h-13z"/>
  </symbol>
  <symbol id="calendar3" viewBox="0 0 16 16">
    <path d="M14 0H2a2 2 0 0 0-2 2v12a2 2 0 0 0 2 2h12a2 2 0 0 0 2-2V2a2 2 0 0 0-2-2zM1 3.857C1 3.384 1.448 3 2 3h12c.552 0 1 .384 1 .857v10.286c0 .473-.448.857-1 .857H2c-.552 0-1-.384-1-.857V3.857z"/>
    <path d="M6.5 7a1 1 0 1 0 0-2 1 1 0 0 0 0 2zm3 0a1 1 0 1 0 0-2 1 1 0 0 0 0 2zm3 0a1 1 0 1 0 0-2 1 1 0 0 0 0 2zm-9 3a1 1 0 1 0 0-2 1 1 0 0 0 0 2zm3 0a1 1 0 1 0 0-2 1 1 0 0 0 0 2zm3 0a1 1 0 1 0 0-2 1 1 0 0 0 0 2zm3 0a1 1 0 1 0 0-2 1 1 0 0 0 0 2zm-9 3a1 1 0 1 0 0-2 1 1 0 0 0 0 2zm3 0a1 1 0 1 0 0-2 1 1 0 0 0 0 2zm3 0a1 1 0 1 0 0-2 1 1 0 0 0 0 2z"/>
  </symbol>
  <symbol id="chat-quote-fill" viewBox="0 0 16 16">
    <path d="M16 8c0 3.866-3.582 7-8 7a9.06 9.06 0 0 1-2.347-.306c-.584.296-1.925.864-4.181 1.234-.2.032-.352-.176-.273-.362.354-.836.674-1.95.77-2.966C.744 11.37 0 9.76 0 8c0-3.866 3.582-7 8-7s8 3.134 8 7zM7.194 6.766a1.688 1.688 0 0 0-.227-.272 1.467 1.467 0 0 0-.469-.324l-.008-.004A1.785 1.785 0 0 0 5.734 6C4.776 6 4 6.746 4 7.667c0 .92.776 1.666 1.734 1.666.343 0 .662-.095.931-.26-.137.389-.39.804-.81 1.22a.405.405 0 0 0 .011.59c.173.16.447.155.614-.01 1.334-1.329 1.37-2.758.941-3.706a2.461 2.461 0 0 0-.227-.4zM11 9.073c-.136.389-.39.804-.81 1.22a.405.405 0 0 0 .012.59c.172.16.446.155.613-.01 1.334-1.329 1.37-2.758.942-3.706a2.466 2.466 0 0 0-.228-.4 1.686 1.686 0 0 0-.227-.273 1.466 1.466 0 0 0-.469-.324l-.008-.004A1.785 1.785 0 0 0 10.07 6c-.957 0-1.734.746-1.734 1.667 0 .92.777 1.666 1.734 1.666.343 0 .662-.095.931-.26z"/>
  </symbol>
  <symbol id="cpu-fill" viewBox="0 0 16 16">
    <path d="M6.5 6a.5.5 0 0 0-.5.5v3a.5.5 0 0 0 .5.5h3a.5.5 0 0 0 .5-.5v-3a.5.5 0 0 0-.5-.5h-3z"/>
    <path d="M5.5.5a.5.5 0 0 0-1 0V2A2.5 2.5 0 0 0 2 4.5H.5a.5.5 0 0 0 0 1H2v1H.5a.5.5 0 0 0 0 1H2v1H.5a.5.5 0 0 0 0 1H2v1H.5a.5.5 0 0 0 0 1H2A2.5 2.5 0 0 0 4.5 14v1.5a.5.5 0 0 0 1 0V14h1v1.5a.5.5 0 0 0 1 0V14h1v1.5a.5.5 0 0 0 1 0V14h1v1.5a.5.5 0 0 0 1 0V14a2.5 2.5 0 0 0 2.5-2.5h1.5a.5.5 0 0 0 0-1H14v-1h1.5a.5.5 0 0 0 0-1H14v-1h1.5a.5.5 0 0 0 0-1H14v-1h1.5a.5.5 0 0 0 0-1H14A2.5 2.5 0 0 0 11.5 2V.5a.5.5 0 0 0-1 0V2h-1V.5a.5.5 0 0 0-1 0V2h-1V.5a.5.5 0 0 0-1 0V2h-1V.5zm1 4.5h3A1.5 1.5 0 0 1 11 6.5v3A1.5 1.5 0 0 1 9.5 11h-3A1.5 1.5 0 0 1 5 9.5v-3A1.5 1.5 0 0 1 6.5 5z"/>
  </symbol>
  <symbol id="gear-fill" viewBox="0 0 16 16">
    <path d="M9.405 1.05c-.413-1.4-2.397-1.4-2.81 0l-.1.34a1.464 1.464 0 0 1-2.105.872l-.31-.17c-1.283-.698-2.686.705-1.987 1.987l.169.311c.446.82.023 1.841-.872 2.105l-.34.1c-1.4.413-1.4 2.397 0 2.81l.34.1a1.464 1.464 0 0 1 .872 2.105l-.17.31c-.698 1.283.705 2.686 1.987 1.987l.311-.169a1.464 1.464 0 0 1 2.105.872l.1.34c.413 1.4 2.397 1.4 2.81 0l.1-.34a1.464 1.464 0 0 1 2.105-.872l.31.17c1.283.698 2.686-.705 1.987-1.987l-.169-.311a1.464 1.464 0 0 1 .872-2.105l.34-.1c1.4-.413 1.4-2.397 0-2.81l-.34-.1a1.464 1.464 0 0 1-.872-2.105l.17-.31c.698-1.283-.705-2.686-1.987-1.987l-.311.169a1.464 1.464 0 0 1-2.105-.872l-.1-.34zM8 10.93a2.929 2.929 0 1 1 0-5.86 2.929 2.929 0 0 1 0 5.858z"/>
  </symbol>
  <symbol id="speedometer" viewBox="0 0 16 16">
    <path d="M8 2a.5.5 0 0 1 .5.5V4a.5.5 0 0 1-1 0V2.5A.5.5 0 0 1 8 2zM3.732 3.732a.5.5 0 0 1 .707 0l.915.914a.5.5 0 1 1-.708.708l-.914-.915a.5.5 0 0 1 0-.707zM2 8a.5.5 0 0 1 .5-.5h1.586a.5.5 0 0 1 0 1H2.5A.5.5 0 0 1 2 8zm9.5 0a.5.5 0 0 1 .5-.5h1.5a.5.5 0 0 1 0 1H12a.5.5 0 0 1-.5-.5zm.754-4.246a.389.389 0 0 0-.527-.02L7.547 7.31A.91.91 0 1 0 8.85 8.569l3.434-4.297a.389.389 0 0 0-.029-.518z"/>
    <path fill-rule="evenodd" d="M6.664 15.889A8 8 0 1 1 9.336.11a8 8 0 0 1-2.672 15.78zm-4.665-4.283A11.945 11.945 0 0 1 8 10c2.186 0 4.236.585 6.001 1.606a7 7 0 1 0-12.002 0z"/>
  </symbol>
  <symbol id="toggles2" viewBox="0 0 16 16">
    <path d="M9.465 10H12a2 2 0 1 1 0 4H9.465c.34-.588.535-1.271.535-2 0-.729-.195-1.412-.535-2z"/>
    <path d="M6 15a3 3 0 1 0 0-6 3 3 0 0 0 0 6zm0 1a4 4 0 1 1 0-8 4 4 0 0 1 0 8zm.535-10a3.975 3.975 0 0 1-.409-1H4a1 1 0 0 1 0-2h2.126c.091-.355.23-.69.41-1H4a2 2 0 1 0 0 4h2.535z"/>
    <path d="M14 4a4 4 0 1 1-8 0 4 4 0 0 1 8 0z"/>
  </symbol>
  <symbol id="tools" viewBox="0 0 16 16">
    <path d="M1 0L0 1l2.2 3.081a1 1 0 0 0 .815.419h.07a1 1 0 0 1 .708.293l2.675 2.675-2.617 2.654A3.003 3.003 0 0 0 0 13a3 3 0 1 0 5.878-.851l2.654-2.617.968.968-.305.914a1 1 0 0 0 .242 1.023l3.356 3.356a1 1 0 0 0 1.414 0l1.586-1.586a1 1 0 0 0 0-1.414l-3.356-3.356a1 1 0 0 0-1.023-.242L10.5 9.5l-.96-.96 2.68-2.643A3.005 3.005 0 0 0 16 3c0-.269-.035-.53-.102-.777l-2.14 2.141L12 4l-.364-1.757L13.777.102a3 3 0 0 0-3.675 3.68L7.462 6.46 4.793 3.793a1 1 0 0 1-.293-.707v-.071a1 1 0 0 0-.419-.814L1 0zm9.646 10.646a.5.5 0 0 1 .708 0l3 3a.5.5 0 0 1-.708.708l-3-3a.5.5 0 0 1 0-.708zM3 11l.471.242.529.026.287.445.445.287.026.529L5 13l-.242.471-.026.529-.445.287-.287.445-.529.026L3 15l-.471-.242L2 14.732l-.287-.445L1.268 14l-.026-.529L1 13l.242-.471.026-.529.445-.287.287-.445.529-.026L3 11z"/>
  </symbol>
  <symbol id="chevron-right" viewBox="0 0 16 16">
    <path fill-rule="evenodd" d="M4.646 1.646a.5.5 0 0 1 .708 0l6 6a.5.5 0 0 1 0 .708l-6 6a.5.5 0 0 1-.708-.708L10.293 8 4.646 2.354a.5.5 0 0 1 0-.708z"/>
  </symbol>
  <symbol id="geo-fill" viewBox="0 0 16 16">
    <path fill-rule="evenodd" d="M4 4a4 4 0 1 1 4.5 3.969V13.5a.5.5 0 0 1-1 0V7.97A4 4 0 0 1 4 3.999zm2.493 8.574a.5.5 0 0 1-.411.575c-.712.118-1.28.295-1.655.493a1.319 1.319 0 0 0-.37.265.301.301 0 0 0-.057.09V14l.002.008a.147.147 0 0 0 .016.033.617.617 0 0 0 .145.15c.165.13.435.27.813.395.751.25 1.82.414 3.024.414s2.273-.163 3.024-.414c.378-.126.648-.265.813-.395a.619.619 0 0 0 .146-.15.148.148 0 0 0 .015-.033L12 14v-.004a.301.301 0 0 0-.057-.09 1.318 1.318 0 0 0-.37-.264c-.376-.198-.943-.375-1.655-.493a.5.5 0 1 1 .164-.986c.77.127 1.452.328 1.957.594C12.5 13 13 13.4 13 14c0 .426-.26.752-.544.977-.29.228-.68.413-1.116.558-.878.293-2.059.465-3.34.465-1.281 0-2.462-.172-3.34-.465-.436-.145-.826-.33-1.116-.558C3.26 14.752 3 14.426 3 14c0-.599.5-1 .961-1.243.505-.266 1.187-.467 1.957-.594a.5.5 0 0 1 .575.411z"/>
  </symbol>
  <symbol id="git-hub" viewBox="0 0 24 24">
	<path fill-rule="evenodd" d="M12 2c5.514 0 10 4.486 10 10s-4.486 10-10 10-10-4.486-10-10 4.486-10 10-10zm0-2c-6.627 0-12 5.373-12 12s5.373 12 12 12 12-5.373 12-12-5.373-12-12-12zm0 6c-3.313 0-6 2.686-6 6 0 2.651 1.719 4.9 4.104 5.693.3.056.396-.13.396-.289v-1.117c-1.669.363-2.017-.707-2.017-.707-.272-.693-.666-.878-.666-.878-.544-.373.041-.365.041-.365.603.042.92.619.92.619.535.917 1.403.652 1.746.499.054-.388.209-.652.381-.802-1.333-.152-2.733-.667-2.733-2.965 0-.655.234-1.19.618-1.61-.062-.153-.268-.764.058-1.59 0 0 .504-.161 1.65.615.479-.133.992-.199 1.502-.202.51.002 1.023.069 1.503.202 1.146-.776 1.648-.615 1.648-.615.327.826.121 1.437.06 1.588.385.42.617.955.617 1.61 0 2.305-1.404 2.812-2.74 2.96.216.186.412.551.412 1.111v1.646c0 .16.096.347.4.288 2.383-.793 4.1-3.041 4.1-5.691 0-3.314-2.687-6-6-6z"/>
  </symbol>
  <symbol id="asp-net-core" viewBox="0 0 125 79.04777140278348">
	<path fill-rule="evenodd" d="M6.02 40.25c-.32-.34-.71-.61-1.14-.8s-.89-.28-1.36-.28c-.47-.01-.93.09-1.36.27-.43.19-.82.46-1.14.8-.33.33-.59.72-.76 1.15-.17.44-.26.9-.26 1.36-.01.47.08.93.26 1.36s.44.82.77 1.15a3.339 3.339 0 0 0 2.5 1.05 3.456 3.456 0 0 0 2.5-1.05c.34-.32.6-.71.78-1.14s.27-.89.27-1.36-.09-.93-.27-1.36c-.19-.44-.45-.83-.79-1.15zM47.87 32.13c-.05 2.24.06 4.49.32 6.72h-.12c-.28-.55-.9-1.57-1.85-3.06L23.42 0H16.5v45.69h5.32V12.66c.06-2.09-.03-4.18-.25-6.27h.2c.38 1 .87 1.96 1.45 2.86l23.42 36.44h6.55V0h-5.32zM89.26 40.67h-18.8V24.84h16.45v-4.82H70.46V4.84h17.65V0h-23.1v45.69h24.22zM93.33 0v4.84h13.1v40.85h5.32V4.84H125V0zM41.19 57.05a10.04 10.04 0 0 0-3.52 2.37c-1.02 1.09-1.82 2.37-2.34 3.78s-.75 2.9-.69 4.39c-.1 2.76.86 5.46 2.7 7.52.92.97 2.04 1.72 3.28 2.22s2.57.72 3.9.66c2 .07 3.99-.35 5.8-1.23l.02-2.33c-1.66.97-3.55 1.45-5.47 1.4-1.03.04-2.06-.14-3.01-.53s-1.81-.99-2.51-1.75a8.72 8.72 0 0 1-2.1-6.14c-.12-2.37.69-4.69 2.25-6.47.74-.82 1.65-1.46 2.66-1.9a7.68 7.68 0 0 1 3.21-.61c1.75-.03 3.47.4 5 1.25v-2.51a12.23 12.23 0 0 0-5-.88c-1.43-.02-2.86.23-4.18.76zM66.12 64.21a6.719 6.719 0 0 0-5.22-2.08c-1.03-.05-2.05.12-3.01.49s-1.83.93-2.57 1.64c-.72.8-1.27 1.73-1.63 2.75s-.51 2.09-.44 3.17c-.1 2.05.61 4.06 1.97 5.59.68.73 1.5 1.31 2.42 1.7.92.38 1.91.57 2.9.53 1.01.03 2.02-.16 2.96-.55s1.78-.98 2.47-1.73a8.06 8.06 0 0 0 2.02-5.76c.12-2.1-.55-4.15-1.87-5.75zm-1.83 10.27a4.394 4.394 0 0 1-3.57 1.51c-.69.03-1.37-.1-2-.36-.63-.27-1.19-.67-1.65-1.19a6.126 6.126 0 0 1-1.35-4.21c-.09-1.57.39-3.12 1.35-4.36.45-.52 1.01-.93 1.64-1.21.63-.27 1.32-.4 2-.37.68-.04 1.35.09 1.97.36s1.17.68 1.61 1.2a6.668 6.668 0 0 1 1.25 4.34c.1 1.52-.34 3.05-1.25 4.29zM75.88 63.23c-.75.67-1.3 1.54-1.57 2.51V62.6h-2.5v15.04h2.5v-7.67c-.08-1.39.28-2.78 1.02-3.96.27-.43.63-.79 1.07-1.04s.93-.4 1.43-.41c.64-.05 1.28.12 1.82.48v-2.48c-.46-.15-.94-.22-1.42-.2-.86-.01-1.69.3-2.35.87zM94.28 69.44c.12-1.91-.45-3.79-1.6-5.31-.57-.64-1.27-1.15-2.06-1.48s-1.64-.48-2.49-.43c-.94-.03-1.88.16-2.75.54-.86.38-1.63.95-2.25 1.67a8.217 8.217 0 0 0-1.97 5.71c-.13 2.08.52 4.14 1.82 5.76.63.69 1.41 1.23 2.27 1.59s1.8.51 2.73.47c1.85.09 3.68-.41 5.22-1.43v-2.26a7.506 7.506 0 0 1-4.65 1.68c-.65.04-1.31-.06-1.92-.3s-1.17-.59-1.63-1.06a5.58 5.58 0 0 1-1.27-3.86H94.3zm-10.57-.7c.13-1.19.65-2.31 1.47-3.18a3.86 3.86 0 0 1 2.88-1.23c.52-.03 1.03.06 1.51.26s.9.5 1.24.89c.7.93 1.05 2.07 1 3.23z"/>
  </symbol>  
  <symbol id="c-sharp" viewBox="0 0 256 288">	
    <path d="M255.569,84.452376 C255.567,79.622376 254.534,75.354376 252.445,71.691376 C250.393,68.089376 247.32,65.070376 243.198,62.683376 C209.173,43.064376 175.115,23.505376 141.101,3.86637605 C131.931,-1.42762395 123.04,-1.23462395 113.938,4.13537605 C100.395,12.122376 32.59,50.969376 12.385,62.672376 C4.064,67.489376 0.015,74.861376 0.013,84.443376 C0,123.898376 0.013,163.352376 0,202.808376 C0,207.532376 0.991,211.717376 2.988,215.325376 C5.041,219.036376 8.157,222.138376 12.374,224.579376 C32.58,236.282376 100.394,275.126376 113.934,283.115376 C123.04,288.488376 131.931,288.680376 141.104,283.384376 C175.119,263.744376 209.179,244.186376 243.209,224.567376 C247.426,222.127376 250.542,219.023376 252.595,215.315376 C254.589,211.707376 255.582,207.522376 255.582,202.797376 C255.582,202.797376 255.582,123.908376 255.569,84.452376" fill="#A179DC" fill-rule="nonzero"></path>
    <path d="M128.182,143.241376 L2.988,215.325376 C5.041,219.036376 8.157,222.138376 12.374,224.579376 C32.58,236.282376 100.394,275.126376 113.934,283.115376 C123.04,288.488376 131.931,288.680376 141.104,283.384376 C175.119,263.744376 209.179,244.186376 243.209,224.567376 C247.426,222.127376 250.542,219.023376 252.595,215.315376 L128.182,143.241376" fill="#280068" fill-rule="nonzero"></path>
    <path d="M255.569,84.452376 C255.567,79.622376 254.534,75.354376 252.445,71.691376 L128.182,143.241376 L252.595,215.315376 C254.589,211.707376 255.58,207.522376 255.582,202.797376 C255.582,202.797376 255.582,123.908376 255.569,84.452376" fill="#390091" fill-rule="nonzero"></path>
    <path d="M201.892326,116.294008 L201.892326,129.767692 L215.36601,129.767692 L215.36601,116.294008 L222.102852,116.294008 L222.102852,129.767692 L235.576537,129.767692 L235.576537,136.504534 L222.102852,136.504534 L222.102852,149.978218 L235.576537,149.978218 L235.576537,156.71506 L222.102852,156.71506 L222.102852,170.188744 L215.36601,170.188744 L215.36601,156.71506 L201.892326,156.71506 L201.892326,170.188744 L195.155484,170.188744 L195.155484,156.71506 L181.6818,156.71506 L181.6818,149.978218 L195.155484,149.978218 L195.155484,136.504534 L181.6818,136.504534 L181.6818,129.767692 L195.155484,129.767692 L195.155484,116.294008 L201.892326,116.294008 Z M215.36601,136.504534 L201.892326,136.504534 L201.892326,149.978218 L215.36601,149.978218 L215.36601,136.504534 Z" fill="#FFFFFF"></path>
    <path d="M128.456752,48.625876 C163.600523,48.625876 194.283885,67.7121741 210.718562,96.0819435 L210.558192,95.808876 L169.209615,119.617159 C161.062959,105.823554 146.128136,96.5150717 128.996383,96.3233722 L128.456752,96.3203544 C102.331178,96.3203544 81.1506705,117.499743 81.1506705,143.625316 C81.1506705,152.168931 83.4284453,160.17752 87.3896469,167.094792 C95.543745,181.330045 110.872554,190.931398 128.456752,190.931398 C146.149522,190.931398 161.565636,181.208041 169.67832,166.820563 L169.481192,167.165876 L210.767678,191.083913 C194.51328,219.21347 164.25027,238.240861 129.514977,238.620102 L128.456752,238.625876 C93.2021701,238.625876 62.4315028,219.422052 46.0382398,190.902296 C38.0352471,176.979327 33.4561922,160.837907 33.4561922,143.625316 C33.4561922,91.1592636 75.9884604,48.625876 128.456752,48.625876 Z" fill="#FFFFFF" fill-rule="nonzero"></path>    
  </symbol>
  <symbol id="huawei" viewBox="0 0 1000 1000" enable-background="new 0 0 1000 1000">	
	<path d="M428.9,125.9c0,0-78.2-3.7-128.1,63.6c-49.9,67.4-12.4,170.3,11.2,223.3c23.7,53.1,148.5,261.3,153.1,265.9c4.6,4.6,10,2.7,10.3-1.5c0.3-4.1,14.3-302.6,3-376.2C467.2,227.5,434,134,428.9,125.9z"/>
	<path d="M158.5,264.7c-8.9,1-73.1,67.9-78.9,133.2c-5.8,65.4,21,108.9,95.7,160.9c75.3,55.8,254.2,158.4,257.5,149.5c3.3-8.8-69.3-143.6-128.7-241.6C244.6,368.7,167.4,263.7,158.5,264.7z"/>
	<path d="M182.6,867.7c54.1,25.3,138.5-31.5,161.8-48c21.7-17.3,61.8-49.2,61.8-49.2l-306.8,8.6C99.4,779.1,128.4,842.4,182.6,867.7z"/>
	<path d="M190.3,608.7C135.4,580,22.4,514,18,515.3c-4.4,1.3-21.4,83.3,13.9,145.2c35.3,61.8,104.1,80.8,135.7,85.8c35.5,5.3,244.2,2.9,242.8-1.5C409.1,741,245.2,637.4,190.3,608.7z"/>
	<path d="M699.2,189.6c-49.9-67.4-128.1-63.6-128.1-63.6c-5.1,8.1-38.4,101.6-49.6,175.2c-11.2,73.6,2.8,372.1,3.1,376.2c0.3,4.1,5.7,6.1,10.3,1.5c4.6-4.6,129.4-212.9,153.1-265.9C711.7,359.8,749.1,256.9,699.2,189.6z"/>
	<path d="M982,515.3c-4.4-1.3-117.4,64.7-172.3,93.4C754.8,637.4,590.9,741,589.7,744.8c-1.4,4.4,207.3,6.7,242.8,1.5c31.6-5.1,100.4-24,135.7-85.8C1003.5,598.6,986.4,516.6,982,515.3z"/>
	<path d="M655.6,819.7c23.3,16.5,107.7,73.3,161.8,48c54.1-25.3,83.2-88.6,83.2-88.6l-306.8-8.6C593.9,770.5,634,802.4,655.6,819.7z"/>
	<path d="M920.4,398c-5.8-65.4-70-132.2-78.9-133.2c-8.9-1-86.2,104-145.6,202c-59.4,98-132,232.8-128.7,241.6c3.3,8.8,182.2-93.8,257.5-149.5C899.4,506.8,926.2,463.3,920.4,398z"/>
  </symbol>
  <symbol id="tp-link" viewBox="0 0 650 650">
	  <path
		   d="M 188.5,633.06651 C 180.3166,631.05227 173.05351,625.11756 168.83728,617 L 166.5,612.5 166,554.5 165.5,496.5 107,496 48.5,495.5 43.887152,492.78822 C 38.891718,489.85153 34.072164,484.86649 31.2687,479.7365 29.642527,476.76081 29.5,472.39026 29.5,425.5 l 0,-51 129,0 129,0 0,129.5 0,129.5 -48,0.15246 c -26.4,0.0839 -49.35,-0.17982 -51,-0.58595 z"
		   id="path3775"
		   style="fill-opacity:1" />
	<path
       d="M 329.5048,491.86957 C 329.2165,491.11631 329.09747,465.3 329.2403,434.5 l 0.2597,-56 28.5,-0.61905 c 29.42725,-0.63919 32.61456,-1.03849 46.33562,-5.80495 34.68701,-12.04966 57.90628,-49.45367 55.30834,-89.09639 -2.67641,-40.84011 -26.75687,-70.03448 -64.86315,-78.63799 -9.62064,-2.17211 -29.83303,-2.21399 -39.42452,-0.0817 -34.50797,7.67156 -60.29155,32.62885 -68.9497,66.74006 -1.26152,4.97012 -1.76331,13.0314 -2.13194,34.25 -0.43219,24.87669 -0.65257,27.75464 -2.12838,27.79482 -9.15197,0.24917 -111.66251,-0.22773 -111.95562,-0.52084 -0.87462,-0.87462 -0.0764,-60.64494 0.91512,-68.52398 8.32346,-66.14175 50.53342,-124.97192 111.14195,-154.90423 30.10604,-14.868255 57.83965,-21.306461 92.25228,-21.41586 33.72407,-0.107211 62.15686,5.973054 90,19.24623 56.23181,26.80641 93.77914,75.75549 105.97257,138.15259 14.08031,72.05278 -7.57254,142.64513 -58.75619,191.55622 -29.72635,28.40648 -64.80079,46.03209 -106.48236,53.5095 -9.73711,1.74678 -17.13481,2.18922 -43.46952,2.59985 -26.28079,0.40978 -31.8256,0.25943 -32.2597,-0.87473 z"
       id="path3761"
       style="fill-opacity:1" />
  </symbol>
  <symbol id="admin-lte" viewBox="150.000000 150.000000 900.000000 900.000000">  
	<path fill-rule="evenodd" d="M410 927 c-19 -7 -44 -27 -57 -46 -23 -33 -23 -39 -23 -302 l0 -269 65 0 65 0 0 100 0 100 180 0 180 0 0 -100 0 -100 65 0 65 0 0 268 c0 287 -2 298 -53 336 -26 20 -43 21 -240 23 -148 2 -223 -1 -247 -10z m410 -197 l0 -80 -180 0 -180 0 0 80 0 80 180 0 180 0 0 -80z"/>
  </symbol>
</svg>